<svg xmlns="http://www.w3.org/2000/svg" viewBox="-700.000 -2291.021 9749.152 3198.545" role="img" aria-label="Irmin horizontal lockup (light)">
  <rect x="-700" y="-2291.02077411292" width="9749.152467626856" height="3198.5452229102575" fill="#F1EBDF"/>
  <g transform="translate(0.000, -1591.021)">
    <rect x="0" y="0" width="1798.5452229102577" height="1798.5452229102577" rx="305.7526878947438" ry="305.7526878947438" fill="#0F1212"/>
    <path d="M1003.2036940873509 748.6266945366859V1312.3372775445819Q1003.2036940873509 1333.6288704867682 1009.3389960720583 1343.6437662387143Q1015.4742980567657 1353.6586619906602 1028.1135221643915 1357.7696951207736L1058.3701537128659 1365.1156168411674Q1070.5880343508193 1369.5987814735095 1076.359172919823 1376.5468113461156Q1082.130311488827 1383.4948412187216 1082.130311488827 1393.6768854514035Q1082.130311488827 1406.2877314559744 1073.619023798622 1413.5692287775391Q1065.107736108417 1420.8507260991037 1047.8200820392506 1420.8507260991037H755.0686129883027Q738.2956288529581 1420.8507260991037 729.7682972405394 1413.5692287775391Q721.2409656281208 1406.2877314559744 721.2409656281208 1393.6768854514035Q721.2409656281208 1383.8178536993944 726.9169970132025 1376.9106845447761Q732.5930283982842 1370.0035153901579 744.5185413146872 1365.4386293218402L775.9835708054528 1357.7696951207736Q788.8052016795746 1353.4990923819387 794.849300281034 1343.6437662387143Q800.8933988824934 1333.7884400954897 800.8933988824934 1312.6602900252547V869.1016952905538Q800.8933988824934 852.1894889579916 795.6486280938973 844.8369173067692Q790.4038573053012 837.4843456555469 779.0863558729739 835.3522321595766L738.3036188222678 833.0143564898086Q726.9672016888952 830.0110107399767 721.6910565551632 824.0028137247982Q716.414911421431 817.9946167096198 716.414911421431 808.6746304987486Q716.414911421431 797.8719537888305 723.013694587296 790.9949132061371Q729.612477753161 784.1178726234436 745.954002140159 778.1743737192635L902.2401350536707 725.9146303826753Q925.7173004225108 717.2377791072862 939.6022384551311 713.6134261782651Q953.4871764877514 709.9890732492439 964.6678302295845 709.9890732492439Q983.7654923960383 709.9890732492439 993.4845932416946 720.647507437088Q1003.2036940873509 731.3059416249321 1003.2036940873509 748.6266945366859Z" fill="#EFE7DB"/>
    <path d="M889.0532879731343 601.0013594232839Q832.0966759195239 601.0013594232839 797.5336485279619 569.7649281295955Q762.9706211363998 538.5284968359072 762.9706211363998 488.9103586268195Q762.9706211363998 439.3695600487313 797.6153699639375 408.5320284299428Q832.2601187914752 377.6944968111543 889.0532879731343 377.6944968111543Q946.411725657816 377.6944968111543 981.2992008221488 408.6424579934262Q1016.1866759864816 439.5904191756981 1016.1866759864816 488.8899267090892Q1016.1866759864816 538.5284968359072 981.258340104161 569.7649281295955Q946.3300042218403 601.0013594232839 889.0532879731343 601.0013594232839Z" fill="#C6F432"/>
  </g>
  <g transform="translate(2500.152, 0)">
    <path d="M439.6722098912155 -891.5438084382199V-143.91704052323848Q439.6722098912155 -115.67885359726188 447.80921517597335 -102.39649848858016Q455.9462204607312 -89.11414337989845 472.70911715519514 -83.66184479884623L512.8372757075485 -73.91924304766098Q529.041361434277 -67.97340136020466 536.6953913666428 -58.758507629957876Q544.3494212990086 -49.54361389971109 544.3494212990086 -36.039576455835686Q544.3494212990086 -19.314316502824113 533.0612413385245 -9.657158251412056Q521.7730613780404 0.0 498.8451382093849 0.0H110.5805903964565Q88.33525334692786 0.0 77.02579497501983 -9.657158251412056Q65.71633660311181 -19.314316502824113 65.71633660311181 -36.039576455835686Q65.71633660311181 -49.11521538422994 73.24422968677459 -58.27591718080589Q80.77212277043736 -67.43661897738184 96.58845289829287 -73.49084453217984L138.31926124148322 -83.66184479884623Q155.3240767244033 -89.32577416069626 163.34012261493308 -102.39649848858016Q171.35616850546285 -115.46722281646407 171.35616850546285 -143.48864200775733V-731.7626403296417Q171.35616850546285 -754.1926222030665 164.40023907761656 -763.9440434911598Q157.44430964977028 -773.6954647792531 142.4343608005297 -776.5232015113093L88.34585012320076 -779.6238323730704Q73.31081413729544 -783.6070495479139 66.31327417213356 -791.5754806025273Q59.31573420697168 -799.5439116571406 59.31573420697168 -811.9046360747416Q59.31573420697168 -826.2317935149513 68.0674360184637 -835.3525369933245Q76.81913782995571 -844.4732804716978 98.49224709653117 -852.3559050130507L305.76828544336377 -921.6659094382339Q336.90510953996863 -933.1736697504211 355.32014671851016 -937.9805038737913Q373.7351838970517 -942.7873379971616 388.5636371355572 -942.7873379971616Q413.8921015472997 -942.7873379971616 426.7821557192576 -928.6514836366257Q439.6722098912155 -914.5156292760898 439.6722098912155 -891.5438084382199ZM288.2790983338991 -1087.3333775541378Q212.73982505324875 -1087.3333775541378 166.900266178498 -1128.7610052645998Q121.06070730374722 -1170.1886329750619 121.06070730374722 -1235.9951823239844Q121.06070730374722 -1301.6991592180007 167.00865004583966 -1342.5977422667918Q212.9565927879321 -1383.496325315583 288.2790983338991 -1383.496325315583Q364.351296854697 -1383.496325315583 410.62115781535067 -1342.4512839597846Q456.89101877600433 -1301.4062426039864 456.89101877600433 -1236.0222803581096Q456.89101877600433 -1170.1886329750619 410.56696588167983 -1128.7610052645998Q364.24291298735534 -1087.3333775541378 288.2790983338991 -1087.3333775541378Z M934.2090266213254 -518.7286387713825Q934.2090266213254 -660.3674374501115 974.3143250891831 -755.7025371815719Q1014.4196235570407 -851.0376369130322 1079.3353256833047 -899.0514076834772Q1144.2510278095688 -947.0651784539223 1218.5157983154104 -947.0651784539223Q1306.95896209711 -947.0651784539223 1355.4632358154965 -894.7535374373317Q1403.967509533883 -842.4418964207412 1403.967509533883 -745.0223978611057Q1403.967509533883 -659.8830997404839 1367.896781067091 -618.101686111162Q1331.8260526002991 -576.3202724818402 1274.9073523325737 -576.3202724818402Q1218.3504826549224 -576.3202724818402 1189.1489826726793 -606.4551908533297Q1159.9474826904361 -636.5901092248191 1159.2972456346115 -691.3838252840501L1158.9721271066992 -726.4919769817684Q1158.49215396187 -757.5665626072305 1144.8118390397126 -772.8818084011441Q1131.1315241175553 -788.1970541950577 1101.2755110530074 -788.1970541950577Q1066.8151333783471 -788.1970541950577 1035.5885673102857 -759.222910281494Q1004.3620012422243 -730.2487663679303 984.7409478714678 -671.3841741994502Q965.1198945007113 -612.51958203097 965.1198945007113 -522.2768935289496ZM953.2341711172749 -888.1530679774473 965.1198945007113 -637.856001889561V-145.54263316280003Q965.1198945007113 -119.85920319749039 975.3907278687411 -106.20232105106174Q985.6615612367709 -92.5454389046331 1010.9657053557376 -88.35579314706365L1097.4760401241288 -75.0263393071973Q1117.4601408451363 -71.8657054899927 1126.7235183672535 -62.23367840450669Q1135.9868958893708 -52.601651319020675 1135.9868958893708 -36.356990336708805Q1135.9868958893708 -19.39560233604061 1124.161636933903 -9.697801168020305Q1112.3363779784354 0.0 1089.718151641137 0.0H637.4721403808894Q614.833943852715 0.0 603.3957801551612 -9.79262981706097Q591.9576164576074 -19.58525963412194 591.9576164576074 -36.14796032317736Q591.9576164576074 -49.331983118913286 599.8377323045461 -58.568155260584035Q607.7178481514848 -67.80432740225478 623.6967706174091 -73.978555398161L664.5605410959788 -83.66184479884623Q681.5653565788989 -89.03478385539847 689.5814024694287 -102.068122613671Q697.5974483599584 -115.10146137194351 697.5974483599584 -142.5132864240204V-731.4683403898862Q697.5974483599584 -754.0608815272672 690.7227985640902 -764.0561417112947Q683.848148768222 -774.0514018953222 668.8381999189814 -776.8791386273783L613.9368929218717 -779.9797694891395Q599.3895347278349 -783.883627139483 592.3107151306949 -791.8917379563463Q585.231895533555 -799.8998487732097 585.231895533555 -812.0980139268545Q585.231895533555 -826.262612103108 594.1626257437877 -835.7249432441781Q603.0933559540204 -845.1872743852482 624.7335269510268 -852.7118421291198L830.3160136451779 -918.4609644438228Q865.399250087175 -931.6274124182328 883.5729513452197 -936.3945788879164Q901.7466526032645 -941.1617453576 913.1693056971985 -941.1617453576Q931.189460560136 -941.1617453576 940.6808587117707 -928.8907311396565Q950.1722568634054 -916.619716921713 953.2341711172749 -888.1530679774473Z M1805.2709331197989 -891.2186899103076V-143.59192199532617Q1805.2709331197989 -115.20268404778517 1813.4320938765786 -101.5748706430852Q1821.5932546333584 -87.94705723838524 1838.3929540294744 -82.13670185985166L1878.126289702298 -71.99924060953299Q1904.739791580424 -60.65270718252032 1904.739791580424 -37.30923197932816Q1904.739791580424 0.0 1859.752357576489 0.0H1476.821870250952Q1454.2920575901194 0.0 1442.9622777599072 -9.738437883390134Q1431.632497929695 -19.476875766780267 1431.632497929695 -36.039576455835686Q1431.632497929695 -49.11521538422994 1439.404229909292 -58.336875354479844Q1447.175961888889 -67.55853532472975 1462.8297327527885 -73.65340379613599L1504.2354225680665 -83.66184479884623Q1521.2402380509866 -89.285131244088 1529.2562839415164 -102.19329630801576Q1537.2723298320461 -115.10146137194351 1537.2723298320461 -142.5132864240204V-731.1124032738171Q1537.2723298320461 -753.7049444111981 1530.397680036178 -763.7002045952256Q1523.5230302403097 -773.6954647792531 1508.5130813910691 -776.5232015113093L1453.6117743939594 -779.6238323730704Q1439.0644161999226 -783.6070495479139 1431.9855966027826 -791.5754806025273Q1424.9067770056427 -799.5439116571406 1424.9067770056427 -811.7420768107854Q1424.9067770056427 -825.906674987039 1433.6584788171347 -835.1899777293684Q1442.4101806286267 -844.4732804716978 1464.4084084231145 -852.3559050130507L1671.5295679359033 -921.8284687021901Q1701.2264725980203 -933.0188151335042 1719.9627759809546 -937.9030765653329Q1738.6990793638888 -942.7873379971616 1755.432015887633 -942.7873379971616Q1779.9707979207124 -942.7873379971616 1792.6208655202556 -928.4889243726695Q1805.2709331197989 -914.1905107481775 1805.2709331197989 -891.2186899103076ZM1777.8419462560742 -670.5830605744495 1739.2461067926833 -711.3950550126692 1778.9215129509853 -747.7922441420342Q1896.710989881422 -857.7995300222838 1986.8355832186 -902.432354238103Q2076.960176555778 -947.0651784539223 2156.8184252781343 -947.0651784539223Q2275.931344708324 -947.0651784539223 2348.7314570422923 -870.9973807397387Q2421.531569376261 -794.9295830255551 2421.531569376261 -659.6915182109797V-144.42836965542256Q2421.531569376261 -114.80811155805259 2430.1973209377834 -101.17340872747832Q2438.863072499306 -87.53870589690405 2456.3570427365407 -81.49153560968716L2491.0222529325224 -71.89596062196415Q2517.320844042282 -60.22430866703917 2517.320844042282 -37.30923197932816Q2517.320844042282 0.0 2472.1064345441177 0.0H2098.212550495695Q2053.658585812901 0.0 2053.658585812901 -37.30923197932816Q2053.658585812901 -60.65270718252032 2080.2772246449126 -71.99924060953299L2119.445731206416 -81.81158333193935Q2138.7227494673957 -88.05544110572691 2146.61553556982 -102.97355393664316Q2154.508321672245 -117.8916667675594 2154.508321672245 -148.00467346245796V-617.2868517585862Q2154.508321672245 -702.6748953141796 2113.869078211327 -746.2123523756184Q2073.2298347504097 -789.7498094370571 2004.7258905441959 -789.7498094370571Q1960.0723001347815 -789.7498094370571 1913.2275535641847 -769.4605033429539Q1866.382806993588 -749.1711972488506 1816.121076146143 -704.6278549584022ZM2392.390998723098 -671.812873770325 2353.8358021763156 -712.5842252919365 2392.153201813106 -749.5863878824534Q2501.100835370998 -854.4409501692844 2584.745367332418 -900.7530643116033Q2668.389899293838 -947.0651784539223 2746.936887125868 -947.0651784539223Q2860.717437644543 -947.0651784539223 2925.816771182781 -871.8445255764598Q2990.916104721018 -796.6238726989973 3005.816824618073 -662.7412805656945L3066.4104833130727 -145.07860671124718Q3069.8034165034896 -115.6093996354416 3077.3378248799327 -101.81988524507437Q3084.8722332563752 -88.03037085470714 3102.1261986113936 -82.36644149285712L3136.861113158993 -73.32828526822368Q3152.3116818423277 -67.1424386985509 3159.8802178425985 -58.18301897506126Q3167.44875384287 -49.22359925157161 3167.44875384287 -36.039576455835686Q3167.44875384287 -19.314316502824113 3156.3722046631838 -9.657158251412056Q3145.2956554834973 0.0 3122.3677323148418 0.0H2738.0737970285118Q2693.519832345718 0.0 2693.519832345718 -37.30923197932816Q2693.519832345718 -60.39529653122872 2720.179114094338 -71.99924060953299L2759.2947089240433 -81.81158333193935Q2778.571727185023 -87.94705723838524 2788.160979882656 -103.00063543371198Q2797.7502325802893 -118.05421362903871 2794.3572993898724 -148.2484813522001L2740.1400031246962 -618.3044434779349Q2730.0165128236813 -703.5092303541492 2696.2772312044926 -746.6295198956032Q2662.537949585304 -789.7498094370571 2598.095512866099 -789.7498094370571Q2559.2552838833917 -789.7498094370571 2517.783689463405 -769.0392227292921Q2476.3120950434186 -748.328636021527 2429.3121220916555 -706.4626416154297Z M3558.6722098912155 -891.5438084382199V-143.91704052323848Q3558.6722098912155 -115.67885359726188 3566.8092151759733 -102.39649848858016Q3574.946220460731 -89.11414337989845 3591.709117155195 -83.66184479884623L3631.8372757075485 -73.91924304766098Q3648.041361434277 -67.97340136020466 3655.695391366643 -58.758507629957876Q3663.3494212990086 -49.54361389971109 3663.3494212990086 -36.039576455835686Q3663.3494212990086 -19.314316502824113 3652.0612413385243 -9.657158251412056Q3640.7730613780404 0.0 3617.845138209385 0.0H3229.5805903964565Q3207.335253346928 0.0 3196.02579497502 -9.657158251412056Q3184.716336603112 -19.314316502824113 3184.716336603112 -36.039576455835686Q3184.716336603112 -49.11521538422994 3192.244229686775 -58.27591718080589Q3199.7721227704374 -67.43661897738184 3215.588452898293 -73.49084453217984L3257.319261241483 -83.66184479884623Q3274.3240767244033 -89.32577416069626 3282.340122614933 -102.39649848858016Q3290.356168505463 -115.46722281646407 3290.356168505463 -143.48864200775733V-731.7626403296417Q3290.356168505463 -754.1926222030665 3283.400239077617 -763.9440434911598Q3276.4443096497703 -773.6954647792531 3261.4343608005297 -776.5232015113093L3207.3458501232008 -779.6238323730704Q3192.3108141372954 -783.6070495479139 3185.313274172134 -791.5754806025273Q3178.3157342069717 -799.5439116571406 3178.3157342069717 -811.9046360747416Q3178.3157342069717 -826.2317935149513 3187.067436018464 -835.3525369933245Q3195.8191378299557 -844.4732804716978 3217.492247096531 -852.3559050130507L3424.7682854433638 -921.6659094382339Q3455.9051095399686 -933.1736697504211 3474.32014671851 -937.9805038737913Q3492.7351838970517 -942.7873379971616 3507.563637135557 -942.7873379971616Q3532.8921015472997 -942.7873379971616 3545.7821557192574 -928.6514836366257Q3558.6722098912155 -914.5156292760898 3558.6722098912155 -891.5438084382199ZM3407.279098333899 -1087.3333775541378Q3331.7398250532488 -1087.3333775541378 3285.900266178498 -1128.7610052645998Q3240.060707303747 -1170.1886329750619 3240.060707303747 -1235.9951823239844Q3240.060707303747 -1301.6991592180007 3286.0086500458397 -1342.5977422667918Q3331.956592787932 -1383.496325315583 3407.279098333899 -1383.496325315583Q3483.351296854697 -1383.496325315583 3529.6211578153507 -1342.4512839597846Q3575.8910187760043 -1301.4062426039864 3575.8910187760043 -1236.0222803581096Q3575.8910187760043 -1170.1886329750619 3529.5669658816796 -1128.7610052645998Q3483.2429129873553 -1087.3333775541378 3407.279098333899 -1087.3333775541378Z M4084.588371217799 -891.5438084382199V-143.91704052323848Q4084.588371217799 -115.04012478382901 4092.505693078644 -101.65615027506328Q4100.42301493949 -88.27217576629755 4117.385273599562 -82.46182038776396L4157.118609272386 -72.16179987348914Q4184.057229678424 -60.65270718252032 4184.057229678424 -37.30923197932816Q4184.057229678424 0.0 4139.394914202401 0.0H3755.49675172304Q3733.2920575901194 0.0 3721.962277759907 -9.657158251412056Q3710.632497929695 -19.314316502824113 3710.632497929695 -36.039576455835686Q3710.632497929695 -49.11521538422994 3718.160391013358 -58.255595722501766Q3725.6882840970206 -67.39597606077359 3741.504614224876 -73.49084453217984L3783.2354225680665 -83.66184479884623Q3800.2402380509866 -89.285131244088 3808.2562839415164 -102.35585557197192Q3816.272329832046 -115.42657989985582 3816.272329832046 -143.48864200775733V-731.7626403296417Q3816.272329832046 -754.1926222030665 3809.3164004042 -763.9440434911598Q3802.3604709763536 -773.6954647792531 3787.350522127113 -776.5232015113093L3733.262011449784 -779.6238323730704Q3718.2269754638787 -783.6070495479139 3711.229435498717 -791.5754806025273Q3704.231895533555 -799.5439116571406 3704.231895533555 -811.9046360747416Q3704.231895533555 -826.2317935149513 3712.983597345047 -835.3525369933245Q3721.735299156539 -844.4732804716978 3743.4084084231145 -852.3559050130507L3950.684446769947 -921.6659094382339Q3980.8690292239326 -932.856255869548 3999.4427733429106 -937.8217969333548Q4018.0165174618887 -942.7873379971616 4034.749453985633 -942.7873379971616Q4059.125676754756 -942.7873379971616 4071.8570239862775 -928.6514836366257Q4084.588371217799 -914.5156292760898 4084.588371217799 -891.5438084382199ZM4056.856856988303 -671.7044526930295 4018.3016604415207 -712.9634820065094 4057.9195341899604 -748.8277297493332Q4173.7973443439605 -854.5648375963251 4259.185672771135 -900.8150080251237Q4344.57400119831 -947.0651784539223 4421.317551156946 -947.0651784539223Q4534.944559627815 -947.0651784539223 4597.907779695904 -872.8808682746655Q4660.870999763993 -798.6965580954088 4675.355594094073 -667.7130463090534L4735.726661945091 -146.70419935080872Q4739.040235611008 -117.072433011047 4746.451764485744 -102.87652046078938Q4753.863293360481 -88.68060791053176 4771.767495771324 -83.01667854868174L4809.103358542222 -73.49084453217984Q4824.879045753469 -67.30499796250706 4832.44758175374 -58.264298607039336Q4840.016117754011 -49.22359925157161 4840.016117754011 -36.039576455835686Q4840.016117754011 -19.314316502824113 4828.939568574326 -9.657158251412056Q4817.863019394639 0.0 4794.935096225983 0.0H4406.584859770662Q4361.705776559956 0.0 4361.705776559956 -37.30923197932816Q4361.705776559956 -60.51722528105347 4388.690176836488 -72.16179987348914L4429.756482833667 -82.46182038776396Q4448.383264038823 -88.27217576629755 4457.7702777102495 -102.59423727382159Q4467.157291381676 -116.91629878134563 4463.843717715759 -146.29777018472623L4409.347789620214 -623.5607096375516Q4399.3326914557 -707.613941692046 4367.181261426278 -748.6818755645515Q4335.029831396856 -789.7498094370571 4271.667220792352 -789.7498094370571Q4231.214750562084 -789.7498094370571 4187.604539099753 -768.9657010784019Q4143.994327637423 -748.1815927197467 4095.0242584002594 -705.216305690441Z" fill="#131618"/>
    <circle cx="5529.000" cy="-480.000" r="320.000" fill="#C6F432"/>
  </g>
</svg>
